Coordinates
version=1
nRows=19
nColumns=36
inDegrees=yes

Units are S.I. units (second, meters, Newtons, ...)
If the header above contains a line with 'inDegrees', this indicates whether rotational values are in degrees (yes) or radians (no).

endheader
time	pelvis_tilt	pelvis_list	pelvis_rotation	pelvis_tx	pelvis_ty	pelvis_tz	hip_flexion_r	hip_adduction_r	hip_rotation_r	knee_angle_r	knee_angle_r_beta	ankle_angle_r	subtalar_angle_r	mtp_angle_r	hip_flexion_l	hip_adduction_l	hip_rotation_l	knee_angle_l	knee_angle_l_beta	ankle_angle_l	subtalar_angle_l	mtp_angle_l	lumbar_extension	lumbar_bending	lumbar_rotation	arm_flex_r	arm_add_r	arm_rot_r	elbow_flex_r	pro_sup_r	arm_flex_l	arm_add_l	arm_rot_l	elbow_flex_l	pro_sup_l
      0.96000000	      2.38302069	     -2.15671670	      3.54438899	      1.00429376	      1.13300650	     -0.15532145	     23.90785312	     -0.23564113	     -0.42795594	     46.57688822	      0.81292005	      0.88889015	    -12.69494613	     -7.49999987	     -3.07329371	      4.00125335	     -1.12107057	      9.26436225	      0.16169362	      5.50346125	     -4.82097580	     -7.49999987	    -11.00387094	      2.24323862	     -8.78955063	    -13.38210678	     -3.15319691	    -22.45267518	     49.52108458	     98.69259715	     -2.40514510	     -4.39209654	    -11.78216077	     33.98413911	    101.48167838
      0.97000000	      2.41183213	     -2.08357537	      4.16108450	      1.01306919	      1.13180494	     -0.15482656	     23.65796372	      0.07641766	     -0.61590341	     43.38478638	      0.75720737	      1.63068192	    -11.33017903	     -7.49999987	     -3.91660756	      4.16731533	     -0.91428676	      9.46713230	      0.16523263	      4.28531595	     -4.32263273	     -7.49999987	    -11.16736684	      2.21328330	     -9.02006033	    -13.04385677	     -3.37381089	    -21.57284563	     48.34106812	     97.71324879	     -2.13832485	     -4.84274057	    -10.50846801	     34.50687644	    100.27130744
      0.98000000	      2.36452769	     -2.01145346	      4.73003004	      1.02219310	      1.13012257	     -0.15454378	     23.49486327	      0.32246478	     -0.41700415	     40.71282740	      0.71057289	      1.89119250	    -10.55752075	     -7.49999987	     -4.49693953	      4.24963625	     -0.69190550	      9.68999020	      0.16912223	      3.48330778	     -3.75697141	     -7.49999987	    -11.25314275	      2.16816826	     -9.30474389	    -12.63214040	     -3.53987659	    -20.68292620	     46.72417643	     96.90657005	     -1.87073938	     -5.22052088	     -9.65187774	     34.86339815	     99.27677213
      0.99000000	      2.22084609	     -1.89688830	      5.18102376	      1.03166450	      1.12779141	     -0.15439597	     23.53171201	      0.42809198	      0.19058261	     38.71438309	      0.67569345	      1.93878796	    -10.49806114	     -7.49999987	     -4.82536256	      4.30268013	     -0.51486380	      9.79890860	      0.17102322	      3.11161834	     -3.39855187	     -7.49999987	    -11.18295338	      2.01564867	     -9.52848116	    -12.20999755	     -3.72696882	    -19.48610758	     44.80957308	     96.24233779	     -1.71865756	     -5.63037592	     -8.84003231	     35.40956374	     98.45574247
      1.00000000	      2.04318962	     -1.76942092	      5.57310933	      1.04144850	      1.12516267	     -0.15451556	     23.62348336	      0.36528608	      0.97748333	     37.15180639	      0.64842134	      1.97288518	    -10.95283443	     -7.49999987	     -5.01912234	      4.30640334	     -0.20546416	      9.70509819	      0.16938592	      3.22834125	     -3.23559326	     -7.49999987	    -11.12723775	      1.92751117	     -9.37749707	    -12.19943808	     -3.59863600	    -19.37041342	     43.54130956	     96.55851479	     -1.32988619	     -5.76973231	     -8.74118835	     35.71802392	     98.77456630
      1.01000000	      1.69788985	     -1.53405683	      5.81894831	      1.05150679	      1.12226849	     -0.15432871	     23.96477934	      0.15091312	      2.11497253	     35.92119134	      0.62694306	      1.70015976	    -12.47821134	     -7.49999987	     -4.99878841	      4.35945923	     -0.10533376	      9.38859143	      0.16386183	      3.80038849	     -3.01106038	     -7.49999987	    -10.80030772	      1.51968543	     -9.69394576	    -11.69646259	     -3.47279553	    -18.76293090	     41.28708042	     97.12637784	     -1.36257117	     -6.20022963	     -8.32033163	     36.23647838	     99.39695070
      1.02000000	      1.27169659	     -1.26257061	      6.01826012	      1.06176890	      1.11953624	     -0.15416076	     24.39150581	     -0.22633215	      3.15245233	     34.71848684	      0.60595191	      1.70302215	    -14.20228619	     -7.49999987	     -4.88724374	      4.42503498	      0.04029379	      8.92876139	      0.15583628	      4.67455573	     -2.88842714	     -7.49999987	    -10.40368026	      1.10923330	    -10.20538804	    -11.35078289	     -3.45534424	    -17.37731129	     39.46660882	     97.56553623	     -1.65189543	     -6.53389673	     -8.43967671	     37.00446323	     99.89546287
      1.03000000	      0.85157944	     -0.94254117	      6.18388910	      1.07202027	      1.11738578	     -0.15386556	     24.80885810	     -0.69582621	      4.07757071	     33.37241002	      0.58245843	      2.00532134	    -15.98982247	     -7.49999987	     -4.84121881	      4.52436911	      0.22985608	      8.32392434	      0.14527989	      5.59479502	     -2.97135206	     -7.49999987	    -10.05616994	      0.71566767	    -10.20619425	    -11.55011042	     -3.16582811	    -17.25723822	     38.56294228	     97.91920170	     -1.51148752	     -6.76565458	     -8.40180963	     37.37983604	    100.33661207
      1.04000000	      0.23332481	     -0.59709168	      6.24004506	      1.08243757	      1.11581277	     -0.15305932	     25.42473070	     -1.13831992	      4.96243967	     31.72652589	      0.55373234	      1.79254403	    -18.43113895	     -7.49999987	     -4.64430714	      4.65034157	      0.14096012	      7.71058048	      0.13457502	      6.47347017	     -2.75569183	     -7.49999987	     -9.43597152	      0.23564218	    -10.50277873	    -11.59092674	     -2.78784707	    -17.02967325	     37.38763872	     98.21533797	     -1.86512012	     -7.16280225	     -8.22956721	     38.01942325	    100.80071421
      1.05000000	     -0.18406766	     -0.28535115	      6.36388811	      1.09269465	      1.11538939	     -0.15232192	     25.75383100	     -1.56129261	      5.39694005	     29.69856048	      0.51833766	      2.19611847	    -19.95869066	     -7.49999987	     -4.73747619	      4.73747616	      0.20579198	      7.11285701	      0.12414277	      7.32498483	     -2.64095903	     -7.49999987	     -9.11001433	     -0.11974146	    -10.69139322	    -11.81023861	     -2.41800435	    -16.82884739	     36.70171493	     98.57427705	     -1.94842680	     -7.44399546	     -8.20905254	     38.38355830	    101.25419076
      1.06000000	     -0.65629571	      0.04656968	      6.44450146	      1.10301621	      1.11546932	     -0.15137772	     26.10118720	     -1.90879993	      5.68727670	     27.37493668	      0.47778278	      2.27529436	    -21.47836206	     -7.49999987	     -4.83800192	      4.85714546	      0.04280157	      6.58772479	      0.11497749	      8.23489252	     -2.13071028	     -7.49999987	     -8.65349395	     -0.53228643	    -11.08746280	    -11.90776431	     -2.04129445	    -16.58636977	     35.98494410	     98.75930571	     -2.33705530	     -7.80690571	     -8.14675610	     39.08357199	    101.58311292
      1.07000000	     -0.87669744	      0.33994593	      6.57716001	      1.11321168	      1.11621053	     -0.15058950	     26.08572508	     -2.14605406	      5.63065636	     24.76426498	      0.43221796	      2.61426788	    -22.20663094	     -7.49999987	     -5.24334285	      4.94493181	      0.14503074	      6.15120364	      0.10735876	      9.06790385	     -1.84277305	     -7.49999987	     -8.61979368	     -0.81370180	    -11.57837322	    -11.97774114	     -1.76793464	    -15.92741557	     35.55214553	     98.57713002	     -2.74059997	     -8.07084105	     -8.52558566	     39.99690602	    101.72312133
      1.08000000	     -1.21657556	      0.61334335	      6.71345462	      1.12364177	      1.11656806	     -0.15010503	     26.16301289	     -2.32106850	      5.29074917	     22.09581301	      0.38564469	      2.98295399	    -22.16532254	     -7.49999987	     -5.53527850	      5.06793643	      0.36296026	      5.83741582	      0.10188213	      9.84600689	     -1.79014700	     -7.49999987	     -8.24530281	     -1.09674641	    -11.74974623	    -12.10301910	     -1.44489330	    -15.69797989	     34.82043947	     97.87639445	     -2.74703788	     -8.29579781	     -8.28698979	     39.94682341	    101.19832576
      1.09000000	     -1.18136680	      0.83133317	      6.75212786	      1.13423647	      1.11696324	     -0.14967378	     25.77393309	     -2.29997178	      4.64192904	     19.40610584	      0.33870044	      3.78516582	    -21.04847285	     -7.49999987	     -6.25545762	      5.08216407	     -0.16268915	      5.57632376	      0.09732521	     11.18041120	     -0.45052137	     -7.49999987	     -8.40239041	     -1.24116322	    -11.86007620	    -12.22105134	     -1.25381922	    -15.08590438	     34.62539409	     96.81687292	     -2.87372962	     -8.52143632	     -8.08872438	     40.46366848	    100.34586673
      1.10000000	     -1.10297416	      1.01938169	      6.84182350	      1.14489332	      1.11675001	     -0.14965162	     25.31781898	     -2.19280879	      3.79957342	     16.89419111	      0.29485926	      4.46922535	    -19.64075973	     -7.49999987	     -7.00190430	      5.11469500	     -0.14752144	      5.39488145	      0.09415844	     12.26422643	      0.04106790	     -7.49999987	     -8.60440290	     -1.31672975	    -11.95727264	    -12.28960855	     -1.05283976	    -14.91002459	     34.52880441	     96.53132769	     -2.88667525	     -8.68297603	     -7.96254564	     40.78784811	    100.26038293
      1.11000000	     -1.02267216	      1.15454312	      6.88497570	      1.15573208	      1.11592443	     -0.14977253	     24.87317992	     -1.95433003	      2.82435852	     14.66674347	      0.25598296	      5.17822923	    -17.81517084	     -7.49999987	     -7.72397835	      5.11946977	     -0.17847581	      5.29487467	      0.09241300	     13.42159814	      0.53518141	     -7.49999987	     -8.75351289	     -1.36663345	    -11.94499089	    -12.26878673	     -0.90879842	    -14.72637991	     34.27327016	     96.22886008	     -2.82748968	     -8.77512297	     -7.87442776	     40.93455737	    100.05293564
      1.12000000	     -0.87005993	      1.24200953	      6.86097843	      1.16656024	      1.11474988	     -0.14997519	     24.39648218	     -1.57889100	      1.81783423	     12.79358441	      0.22329017	      5.79032155	    -15.85980667	     -7.49999987	     -8.50901802	      5.09928392	     -0.24603060	      5.23205230	      0.09131654	     14.52425403	      0.95004835	     -7.49999987	     -9.03904098	     -1.32408048	    -11.88425081	    -12.17554879	     -0.86450277	    -14.51337483	     34.18596877	     96.05315375	     -2.77043504	     -8.80496555	     -7.83091355	     41.13310361	     99.94144884
      1.13000000	     -0.71447728	      1.25252253	      6.76414214	      1.17741028	      1.11330449	     -0.15008100	     23.96521311	     -1.04923761	      0.86650274	     11.28261221	      0.19691873	      6.22185992	    -14.00451156	     -7.49999987	     -9.28201619	      5.03037219	     -0.30880078	      5.20120071	      0.09077808	     15.52338912	      1.21509866	     -7.49999987	     -9.31943935	     -1.21202877	    -11.77517388	    -12.01534344	     -0.92761076	    -14.12158056	     34.15612312	     95.36654821	     -2.73321771	     -8.82721838	     -7.72484465	     41.30549952	     99.16875849
      1.14000000	     -0.60726156	      1.20242963	      6.60364245	      1.18818826	      1.11170549	     -0.14993034	     23.65348348	     -0.40258977	     -0.04973759	     10.14923388	      0.17713755	      6.51087172	    -12.18036056	     -7.49999987	     -9.97920584	      4.92292272	     -0.42532849	      5.21850479	      0.09108009	     16.47437260	      1.46734318	     -7.49999987	     -9.53911903	     -1.04951083	    -11.65808351	    -11.74273980	     -1.02619348	    -13.92034160	     34.04418673	     95.52112235	     -2.71401505	     -8.74484036	     -7.92846995	     41.39431503	     99.30992362
